<?xml version="1.0" encoding="UTF-8"?>
<svg id="Layer_3" xmlns="http://www.w3.org/2000/svg" version="1.1" xmlns:xlink="http://www.w3.org/1999/xlink" viewBox="0 0 3000 3000">
  <!-- Generator: Adobe Illustrator 29.7.1, SVG Export Plug-In . SVG Version: 2.1.1 Build 8)  -->
  <defs>
    <style>
      .st0 {
        fill: url(#linear-gradient1);
      }

      .st1 {
        fill-rule: evenodd;
      }

      .st1, .st2 {
        fill: #eb5b76;
      }

      .st3 {
        clip-path: url(#clippath-1);
      }

      .st4 {
        clip-rule: evenodd;
        fill: none;
      }

      .st5 {
        fill: url(#linear-gradient);
      }

      .st6 {
        clip-path: url(#clippath);
      }
    </style>
    <clipPath id="clippath">
      <path class="st4" d="M1379.1,1050.6h393.6c44.8,0,81.5,36.7,81.5,81.5v138.5c0,44.9-36.7,81.5-81.5,81.5h-393.6c-44.8,0-81.5-36.7-81.5-81.5v-138.5c0-44.8,36.7-81.5,81.5-81.5M1230.7,978.6h663.2c131.7,0,239.4,107.7,239.4,239.4v373.2c-24.6-20-61.1-21.2-91.3-21.2-48.3,0-96.7-.8-145-1-26.9,0-53.8,0-80.7.5-14,.3-37.3,0-50.6,3.5-76.8,19.8-87.5,124.7-16.2,159.1,24,11.5,68.2,10.3,94.7,9.8,6.1-.1,12.2-.3,18.3-.4l-246.5,242.1c-25.4-24.5-50-49.9-74.8-74.9-30.1-30.5-60.7-62-92.7-90.5-39.5-35-90-31.2-126.9,5l-252.2,247.2c-6-5.6-12-11.6-17.8-17.8-37.5-42.3-60.3-97.8-60.3-158.4v-676.1c0-131.7,107.7-239.4,239.4-239.4Z"/>
    </clipPath>
    <linearGradient id="linear-gradient" x1="1567.8" y1="1340" x2="1553.4" y2="1819.4" gradientUnits="userSpaceOnUse">
      <stop offset="0" stop-color="#eb5b76"/>
      <stop offset="1" stop-color="#7484e3"/>
    </linearGradient>
    <clipPath id="clippath-1">
      <path class="st4" d="M1934,1712.5l-317.8,312c-57.3-53.2-136.6-139.2-187.4-184.3-29.1-25.8-62-20.2-86.6,4l-250.4,245.5c32.9,26.3,68.2,45.1,106,56.4,21.2-20.7,42.3-41.5,63.9-62.8l125.8-123,135,132.3h0s52.3,51.3,52.3,51.3c53.9,47.9,98.5-15.5,139.5-56,51-50.3,100-98.8,151.3-148.7,13.7-13.3,139.5-139.5,151.2-146.9.5,33.8-5,144.8,5.8,167.7,21.8,45.9,93,41.7,106.6-9.5,5.5-20.6,5-213.4,5-261.6,0-74.1-14.6-89.4-92.3-89.3-48.8,0-248.4-3.2-268.9,2.1-50.6,13.1-57,81.5-10.8,103.8,29.3,14.1,130.4,1.9,171.8,7.1"/>
    </clipPath>
    <linearGradient id="linear-gradient1" x1="1539.2" y1="1953.1" x2="1927.7" y2="1643.1" gradientUnits="userSpaceOnUse">
      <stop offset="0" stop-color="#7484e3"/>
      <stop offset="1" stop-color="#eb5b76"/>
    </linearGradient>
  </defs>
  <g class="st6">
    <rect class="st5" x="991.3" y="978.6" width="1142" height="1091.7"/>
  </g>
  <g class="st3">
    <rect class="st0" x="1091.8" y="1596.3" width="1042.9" height="595.4"/>
  </g>
  <path class="st1" d="M1584.7,1300.5c95.6,0,177.1,15.9,207.7,38h-415.5c30.7-22.2,112.1-38,207.7-38"/>
  <polygon class="st1" points="1566.7 1282.2 1599.3 1282.2 1586.7 1192.1 1578.2 1192.1 1566.7 1282.2"/>
  <rect class="st2" x="1578.6" y="1107.2" width="9" height="57.7"/>
  <rect class="st2" x="1476.8" y="1107.2" width="9" height="57.7"/>
  <rect class="st2" x="1527" y="1122.2" width="4.3" height="27.8"/>
  <rect class="st2" x="1417.6" y="1122.2" width="4.3" height="27.8"/>
  <rect class="st2" x="1359.7" y="1107.2" width="9" height="57.7"/>
  <rect class="st2" x="1686.5" y="1107.2" width="9" height="57.7"/>
  <rect class="st2" x="1641" y="1122.2" width="4.3" height="27.8"/>
  <rect class="st2" x="1750.4" y="1122.2" width="4.3" height="27.8"/>
  <rect class="st2" x="1803.7" y="1107.2" width="9" height="57.7"/>
</svg>