<?xml version="1.0" encoding="UTF-8"?>
<svg id="Layer_2" xmlns="http://www.w3.org/2000/svg" version="1.1" viewBox="0 0 3000 3000">
  <!-- Generator: Adobe Illustrator 29.7.1, SVG Export Plug-In . SVG Version: 2.1.1 Build 8)  -->
  <defs>
    <style>
      .st0, .st1 {
        fill: #fff;
      }

      .st1 {
        fill-rule: evenodd;
      }
    </style>
  </defs>
  <path class="st1" d="M1355.6,1028.2h381.6c43.5,0,79.1,35.6,79.1,79.1v134.3c0,43.5-35.6,79.1-79.1,79.1h-381.6c-43.5,0-79.1-35.6-79.1-79.1v-134.3c0-43.5,35.6-79.1,79.1-79.1M1211.7,958.5h642.9c127.6,0,232.1,104.4,232.1,232.1v361.8c-23.9-19.4-59.2-20.6-88.6-20.6-46.8,0-93.7-.8-140.6-.9-26.1,0-52.2,0-78.2.4-13.6.3-36.2,0-49.1,3.4-74.5,19.2-84.8,120.9-15.7,154.2,23.2,11.2,66.1,10,91.8,9.5,5.9-.1,11.8-.3,17.7-.4l-239,234.7c-24.6-23.8-48.5-48.3-72.5-72.6-29.2-29.6-58.8-60.1-89.9-87.7-38.2-33.9-87.2-30.2-123,4.8l-244.4,239.6c-5.8-5.5-11.6-11.2-17.3-17.2-36.3-41-58.4-94.8-58.4-153.5v-655.5c0-127.6,104.4-232.1,232.1-232.1h0Z"/>
  <path class="st1" d="M1893.5,1669.9l-308.1,302.5c-55.5-51.6-132.4-134.9-181.7-178.7-28.2-25.1-60.1-19.6-83.9,3.8l-242.8,238c31.9,25.5,66.1,43.7,102.7,54.6,20.5-20.1,41-40.2,62-60.9l122-119.3,130.8,128.3h0l50.7,49.7c52.3,46.4,95.5-15.1,135.2-54.3,49.5-48.8,97-95.8,146.6-144.2,13.3-12.9,135.3-135.3,146.6-142.4.5,32.8-4.9,140.4,5.6,162.5,21.2,44.5,90.1,40.4,103.3-9.2,5.3-20,4.9-206.8,4.9-253.6,0-71.8-14.2-86.6-89.5-86.6-47.3,0-240.8-3.1-260.7,2-49,12.7-55.3,79-10.4,100.7,28.4,13.7,126.4,1.8,166.5,6.9"/>
  <path class="st1" d="M1555.5,1271.1c93,0,172.1,15.4,201.9,37h-403.9c29.8-21.6,109-37,201.9-37"/>
  <polygon class="st1" points="1538.1 1253.3 1569.8 1253.3 1557.5 1165.6 1549.2 1165.6 1538.1 1253.3"/>
  <rect class="st0" x="1549.6" y="1083.2" width="8.7" height="56.1"/>
  <rect class="st0" x="1450.7" y="1083.2" width="8.7" height="56.1"/>
  <rect class="st0" x="1499.4" y="1097.7" width="4.2" height="27"/>
  <rect class="st0" x="1393.1" y="1097.7" width="4.2" height="27"/>
  <rect class="st0" x="1336.8" y="1083.2" width="8.7" height="56.1"/>
  <rect class="st0" x="1654.5" y="1083.2" width="8.7" height="56.1"/>
  <rect class="st0" x="1610.3" y="1097.7" width="4.2" height="27"/>
  <rect class="st0" x="1716.6" y="1097.7" width="4.2" height="27"/>
  <rect class="st0" x="1768.4" y="1083.2" width="8.7" height="56.1"/>
</svg>