<?xml version="1.0" encoding="UTF-8"?>
<svg id="Layer_2" data-name="Layer 2" xmlns="http://www.w3.org/2000/svg" xmlns:xlink="http://www.w3.org/1999/xlink" viewBox="0 0 3000 3000">
  <defs>
    <style>
      .cls-1 {
        fill: #f14036;
      }

      .cls-1, .cls-2 {
        fill-rule: evenodd;
      }

      .cls-3 {
        fill: url(#linear-gradient-2);
      }

      .cls-4, .cls-2 {
        fill: #fff;
      }

      .cls-5 {
        mask: url(#mask);
      }

      .cls-6 {
        fill: url(#linear-gradient-4);
      }

      .cls-7 {
        fill: url(#linear-gradient-3);
      }

      .cls-8 {
        clip-path: url(#clippath-1);
      }

      .cls-9 {
        clip-rule: evenodd;
        fill: none;
      }

      .cls-10 {
        clip-path: url(#clippath-2);
      }

      .cls-11 {
        fill: url(#linear-gradient);
      }

      .cls-12 {
        clip-path: url(#clippath);
      }
    </style>
    <clipPath id="clippath">
      <path class="cls-9" d="M1040.86,672.75h978.09c194.19,0,353.07,158.88,353.07,353.07v997.17c0,194.18-158.88,353.06-353.07,353.06h-978.09c-194.19,0-353.07-158.88-353.07-353.06v-997.17c0-194.19,158.88-353.07,353.07-353.07"/>
    </clipPath>
    <linearGradient id="linear-gradient" x1="1362.51" y1="1014.46" x2="1798.41" y2="2342.42" gradientUnits="userSpaceOnUse">
      <stop offset="0" stop-color="#f14036"/>
      <stop offset="1" stop-color="#f8b411"/>
    </linearGradient>
    <clipPath id="clippath-1">
      <path class="cls-9" d="M708.25,1040.7c6.41-194.08,158.96-347.45,353.06-353.06l514.62-14.88h-535.08c-194.19,0-353.06,158.87-353.06,353.06v633.96l20.46-619.08Z"/>
    </clipPath>
    <linearGradient id="linear-gradient-2" x1="1293.55" y1="891.17" x2="923.53" y2="1520.73" gradientUnits="userSpaceOnUse">
      <stop offset="0" stop-color="#f14036"/>
      <stop offset="1" stop-color="#fefefe"/>
    </linearGradient>
    <clipPath id="clippath-2">
      <path class="cls-9" d="M2351.61,2008.18c-6.41,194.08-158.96,347.45-353.06,353.06l-514.62,14.88h535.08c194.19,0,353.06-158.87,353.06-353.06v-633.96l-20.46,619.08Z"/>
    </clipPath>
    <linearGradient id="linear-gradient-3" x1="2024.24" y1="1782.86" x2="1766.51" y2="2049.99" gradientUnits="userSpaceOnUse">
      <stop offset="0" stop-color="#f8b311"/>
      <stop offset="1" stop-color="#fefefe"/>
    </linearGradient>
    <linearGradient id="linear-gradient-4" x1="482.95" y1="916.58" x2="945.22" y2="1453" gradientTransform="translate(534.34 -146.03)" gradientUnits="userSpaceOnUse">
      <stop offset="0" stop-color="#fff"/>
      <stop offset="1" stop-color="#000"/>
    </linearGradient>
    <mask id="mask" x="984.45" y="967.39" width="1068.37" height="769.83" maskUnits="userSpaceOnUse">
      <rect class="cls-6" x="984.45" y="967.39" width="1068.37" height="769.83"/>
    </mask>
  </defs>
  <g id="Layer_1" data-name="Layer 1">
    <g>
      <g>
        <g class="cls-12">
          <rect class="cls-11" x="687.79" y="672.75" width="1684.22" height="1703.3"/>
        </g>
        <g class="cls-8">
          <rect class="cls-3" x="687.79" y="672.76" width="888.15" height="987.02"/>
        </g>
        <g class="cls-10">
          <rect class="cls-7" x="1483.92" y="1389.1" width="888.15" height="987.02"/>
        </g>
        <path class="cls-2" d="M1355.63,1028.23h381.58c43.48,0,79.05,35.57,79.05,79.05v134.28c0,43.48-35.57,79.05-79.05,79.05h-381.58c-43.48,0-79.05-35.57-79.05-79.05v-134.28c0-43.47,35.57-79.05,79.05-79.05M1211.71,958.47h642.9c127.64,0,232.07,104.43,232.07,232.07v361.76c-23.86-19.4-59.21-20.57-88.55-20.56-46.84.02-93.72-.8-140.57-.92-26.06-.07-52.17-.06-78.23.45-13.56.27-36.16.05-49.08,3.39-74.48,19.24-84.83,120.88-15.7,154.19,23.22,11.18,66.08,10,91.84,9.52,5.91-.11,11.81-.26,17.72-.41l-238.98,234.65c-24.58-23.75-48.52-48.34-72.47-72.61-29.2-29.58-58.81-60.11-89.89-87.68-38.24-33.93-87.22-30.25-122.98,4.81l-244.45,239.61c-5.85-5.47-11.61-11.21-17.29-17.21-36.31-40.99-58.43-94.8-58.43-153.53v-655.45c0-127.64,104.43-232.07,232.08-232.07Z"/>
        <path class="cls-2" d="M1893.54,1669.94l-308.05,302.47c-55.53-51.62-132.42-134.93-181.71-178.67-28.23-25.05-60.09-19.62-83.93,3.84l-242.78,237.97c31.88,25.48,66.12,43.67,102.74,54.63,20.52-20.11,41.03-40.21,61.97-60.87l121.97-119.26,130.84,128.28h0s50.73,49.74,50.73,49.74c52.27,46.39,95.52-15.07,135.24-54.26,49.47-48.81,96.98-95.76,146.64-144.2,13.26-12.94,135.28-135.28,146.61-142.37.52,32.78-4.89,140.41,5.64,162.53,21.17,44.48,90.14,40.43,103.32-9.16,5.32-20.01,4.85-206.83,4.86-253.63.02-71.79-14.2-86.64-89.49-86.61-47.35.01-240.8-3.14-260.72,2-49.03,12.67-55.3,79.04-10.43,100.66,28.44,13.7,126.37,1.82,166.54,6.89"/>
        <path class="cls-2" d="M1555.51,1271.07c92.96,0,172.11,15.42,201.94,36.99h-403.87c29.83-21.57,108.98-36.99,201.93-36.99"/>
        <polygon class="cls-2" points="1538.06 1253.26 1569.75 1253.26 1557.47 1165.62 1549.19 1165.63 1538.06 1253.26"/>
        <rect class="cls-4" x="1549.62" y="1083.17" width="8.73" height="56.07"/>
        <rect class="cls-4" x="1450.66" y="1083.17" width="8.73" height="56.07"/>
        <rect class="cls-4" x="1499.43" y="1097.72" width="4.2" height="26.98"/>
        <rect class="cls-4" x="1393.14" y="1097.72" width="4.2" height="26.98"/>
        <rect class="cls-4" x="1336.79" y="1083.17" width="8.73" height="56.07"/>
        <rect class="cls-4" x="1654.52" y="1083.17" width="8.73" height="56.07"/>
        <rect class="cls-4" x="1610.28" y="1097.72" width="4.2" height="26.98"/>
        <rect class="cls-4" x="1716.58" y="1097.72" width="4.2" height="26.98"/>
        <rect class="cls-4" x="1768.4" y="1083.17" width="8.73" height="56.07"/>
        <g class="cls-5">
          <path class="cls-1" d="M1721.08,1318.28c-1.82.13-3.67.18-5.52.2l-365.84,4.18c-6.03.07-11.91-.72-17.55-2.07-12.76-2.93-26.69-13.39-36-22.02-15.42-14.05-25.14-34.31-25.14-56.74v-130.19c0-5.16.52-10.2,1.5-15.08,1.63-39.15,34.15-70.67,73.68-70.67h387.68c40.56,0,73.75,33.19,73.75,73.75v144.88c0,40.56-33.19,73.75-73.75,73.75h-12.79ZM1208.42,967.39h620.44c123.18,0,223.97,101.25,223.97,224.99v68.88l-1068.37,475.96v-544.84c0-123.74,100.79-224.99,223.97-224.99Z"/>
        </g>
      </g>
    </g>
  </g>
</svg>